<svg width="48" height="48" viewBox="0 0 48 48" fill="none" xmlns="http://www.w3.org/2000/svg">
<path d="M28.2448 20.96C27.8698 20.585 27.3612 20.3744 26.8308 20.3744C26.3005 20.3744 25.7919 20.585 25.4168 20.96L24.0028 22.372C23.6339 22.754 23.1925 23.0587 22.7045 23.2684C22.2164 23.478 21.6916 23.5884 21.1605 23.593C20.6293 23.5976 20.1026 23.4964 19.611 23.2953C19.1194 23.0941 18.6728 22.7971 18.2973 22.4216C17.9217 22.046 17.6247 21.5994 17.4236 21.1078C17.2224 20.6162 17.1212 20.0895 17.1258 19.5584C17.1305 19.0273 17.2408 18.5024 17.4504 18.0144C17.6601 17.5263 17.9648 17.085 18.3468 16.716L29.6068 5.45198C32.2727 4.84563 35.0619 5.09517 37.5777 6.16513C40.0936 7.23508 42.2081 9.07097 43.6206 11.4118C45.0331 13.7525 45.6717 16.4791 45.4455 19.2036C45.2193 21.9282 44.14 24.5121 42.3608 26.588L38.1448 30.858L28.2448 20.958V20.96ZM6.32485 8.93598C8.39437 6.86673 11.1013 5.55594 14.008 5.21551C16.9147 4.87508 19.8512 5.52493 22.3428 7.05998L15.5168 13.888C14.0384 15.3634 13.1957 17.3586 13.1687 19.4471C13.1417 21.5356 13.9326 23.5519 15.3724 25.065C16.8122 26.5782 18.7867 27.4683 20.8739 27.5451C22.9612 27.6219 24.9958 26.8793 26.5428 25.476L26.8308 25.202L35.3168 33.686L26.8308 42.172C26.0807 42.9219 25.0635 43.3431 24.0028 43.3431C22.9422 43.3431 21.925 42.9219 21.1748 42.172L6.32285 27.32C3.88511 24.882 2.51562 21.5756 2.51562 18.128C2.51562 14.6804 3.88511 11.3739 6.32285 8.93598H6.32485Z" fill="#172153"/>
</svg>
