<svg width="25" height="13" viewBox="0 0 25 13" fill="none" xmlns="http://www.w3.org/2000/svg">
<path opacity="0.35" d="M0.5 3.49162C0.5 2.295 1.47005 1.32495 2.66667 1.32495H19.3333C20.53 1.32495 21.5 2.295 21.5 3.49162V9.49162C21.5 10.6882 20.53 11.6583 19.3333 11.6583H2.66667C1.47005 11.6583 0.5 10.6882 0.5 9.49162V3.49162Z" stroke="white"/>
<path opacity="0.4" d="M23 4.4917V8.4917C23.8047 8.15292 24.328 7.36483 24.328 6.4917C24.328 5.61857 23.8047 4.83048 23 4.4917Z" fill="white"/>
<path d="M2 4.15829C2 3.42191 2.59695 2.82495 3.33333 2.82495H18.6667C19.403 2.82495 20 3.4219 20 4.15828V8.82495C20 9.56133 19.403 10.1583 18.6667 10.1583H3.33333C2.59695 10.1583 2 9.56133 2 8.82495V4.15829Z" fill="white"/>
</svg>
