<svg width="36" height="36" viewBox="0 0 36 36" fill="none" xmlns="http://www.w3.org/2000/svg">
<g clip-path="url(#clip0_1277_4621)">
<path d="M18.1096 0C8.10765 0 0 8.10765 0 18.1096C0 27.148 6.62267 34.64 15.2808 36V23.3432H10.681V18.1096H15.2808V14.12C15.2808 9.58177 17.9828 7.07541 22.1208 7.07541C24.102 7.07541 26.1737 7.42854 26.1737 7.42854V11.8835H23.8919C21.6409 11.8835 20.9401 13.2797 20.9401 14.7122V18.1096H25.9619L25.1596 23.3432H20.9401V36C29.5965 34.6418 36.2191 27.1462 36.2191 18.1096C36.2191 8.10765 28.1115 0 18.1096 0Z" fill="white"/>
</g>
<defs>
<clipPath id="clip0_1277_4621">
<rect width="36" height="36" fill="white"/>
</clipPath>
</defs>
</svg>
