<svg width="100" height="100" viewBox="0 0 100 100" fill="none" xmlns="http://www.w3.org/2000/svg">
<path d="M58.8408 43.6667C58.0595 42.8855 56.9998 42.4467 55.895 42.4467C54.7901 42.4467 53.7305 42.8855 52.9492 43.6667L50.0033 46.6083C49.2346 47.4042 48.3151 48.0391 47.2984 48.4758C46.2817 48.9126 45.1882 49.1425 44.0817 49.1521C42.9752 49.1617 41.8779 48.9508 40.8537 48.5318C39.8296 48.1128 38.8991 47.4941 38.1167 46.7116C37.3343 45.9292 36.7155 44.9987 36.2965 43.9746C35.8775 42.9505 35.6666 41.8531 35.6762 40.7466C35.6859 39.6402 35.9157 38.5467 36.3525 37.53C36.7892 36.5133 37.4241 35.5937 38.22 34.825L61.6783 11.3583C67.2322 10.0951 73.0429 10.615 78.2843 12.8441C83.5257 15.0731 87.931 18.8979 90.8737 23.7745C93.8164 28.6512 95.1467 34.3314 94.6755 40.0076C94.2044 45.6838 91.9557 51.067 88.2492 55.3917L79.4658 64.2875L58.8408 43.6625V43.6667ZM13.1742 18.6167C17.4857 14.3057 23.1251 11.5749 29.1807 10.8657C35.2363 10.1565 41.3541 11.5103 46.545 14.7083L32.3242 28.9333C29.2442 32.0072 27.4885 36.1637 27.4322 40.5148C27.376 44.8659 29.0237 49.0664 32.0232 52.2189C35.0228 55.3713 39.1363 57.2256 43.4848 57.3856C47.8333 57.5456 52.0719 55.9985 55.295 53.075L55.895 52.5042L73.5742 70.1792L55.895 87.8583C54.3323 89.4206 52.213 90.2982 50.0033 90.2982C47.7936 90.2982 45.6744 89.4206 44.1117 87.8583L13.17 56.9167C8.09138 51.8376 5.23828 44.9492 5.23828 37.7667C5.23828 30.5841 8.09138 23.6957 13.17 18.6167H13.1742Z" fill="#172153"/>
</svg>
