<svg width="40" height="32" viewBox="0 0 40 32" fill="none" xmlns="http://www.w3.org/2000/svg">
<path d="M5.71621 4H34.2876C34.7086 4 35.1124 4.14048 35.41 4.39052C35.7077 4.64057 35.8749 4.97971 35.8749 5.33333V26.6667C35.8749 27.0203 35.7077 27.3594 35.41 27.6095C35.1124 27.8595 34.7086 28 34.2876 28H5.71621C5.29523 28 4.89149 27.8595 4.59382 27.6095C4.29614 27.3594 4.12891 27.0203 4.12891 26.6667V5.33333C4.12891 4.97971 4.29614 4.64057 4.59382 4.39052C4.89149 4.14048 5.29523 4 5.71621 4V4ZM20.0972 15.5773L9.91938 8.31733L7.86383 10.3493L20.1178 19.0893L32.1511 10.3427L30.0749 8.32533L20.0987 15.5773H20.0972Z" fill="#172153"/>
</svg>
