<svg width="48" height="41" viewBox="0 0 48 41" fill="none" xmlns="http://www.w3.org/2000/svg">
<path d="M6 5.04004H42C42.5304 5.04004 43.0391 5.21704 43.4142 5.5321C43.7893 5.84716 44 6.27448 44 6.72004V33.6C44 34.0456 43.7893 34.4729 43.4142 34.788C43.0391 35.103 42.5304 35.28 42 35.28H6C5.46957 35.28 4.96086 35.103 4.58579 34.788C4.21071 34.4729 4 34.0456 4 33.6V6.72004C4 6.27448 4.21071 5.84716 4.58579 5.5321C4.96086 5.21704 5.46957 5.04004 6 5.04004V5.04004ZM24.12 19.6275L11.296 10.4799L8.706 13.0402L24.146 24.0526L39.308 13.0318L36.692 10.49L24.122 19.6275H24.12Z" fill="#172153"/>
</svg>
