<svg width="135" height="76" viewBox="0 0 135 76" fill="none" xmlns="http://www.w3.org/2000/svg">
<g filter="url(#filter0_d_508_2133)">
<rect x="0.464844" y="29.2799" width="126.897" height="47.5864" rx="23.7932" transform="rotate(-12.903 0.464844 29.2799)" fill="#664EFC"/>
<path d="M41.182 29.739L35.0261 31.1492L38.3947 45.8535L38.1828 45.902L24.7705 33.4986L19.462 34.7147L25.3084 60.2354L31.4767 58.8223L28.1025 44.0931L28.2645 44.056L41.7947 56.4586L47.0284 55.2597L41.182 29.739ZM55.6751 53.6198C58.3419 53.0089 59.9492 51.5521 60.5477 49.3559L60.6973 49.3217L61.3082 51.9884L67.0404 50.6752L64.0601 37.6656C63.1323 33.6157 58.9972 32.1105 54.1248 33.2267C48.9783 34.4057 46.6561 37.6656 46.9694 41.2661L52.6352 40.178C52.6171 38.8968 53.4552 37.9179 55.0627 37.5497C56.558 37.2071 57.6707 37.7129 57.9647 38.9964L57.979 39.0587C58.2473 40.2301 57.0333 40.7705 53.8342 41.805C50.0329 43.0168 47.1213 45.1921 48.0919 49.429C48.9597 53.2172 52.0115 54.4591 55.6751 53.6198ZM56.6433 49.2012C55.2352 49.5237 54.0841 49.0792 53.7929 47.8082C53.5103 46.5745 54.311 45.6041 55.9832 44.9457C57.08 44.5239 58.4186 43.9549 59.0212 43.4365L59.438 45.2559C59.8662 47.1251 58.5873 48.7558 56.6433 49.2012ZM77.1181 48.6551C80.0091 47.9928 81.3605 45.9914 81.7277 44.0449L81.9146 44.0021L82.6255 47.1049L88.6567 45.7232L82.8103 20.2025L76.7167 21.5985L78.9291 31.256L78.8045 31.2845C77.6792 29.693 75.6041 28.3061 72.5884 28.9969C68.5884 29.9133 65.6672 33.8219 67.2145 40.5759C68.7075 47.0932 72.8937 49.6229 77.1181 48.6551ZM78.1488 43.4221C75.8934 43.9388 74.1752 42.2208 73.4672 39.1304C72.7621 36.0525 73.5543 33.7857 75.8223 33.2661C78.0528 32.7551 79.7913 34.3897 80.5078 37.5175C81.2186 40.6204 80.367 42.9139 78.1488 43.4221ZM91.8086 45.0012L97.9021 43.6053L93.5173 24.4647L87.4237 25.8607L91.8086 45.0012ZM89.9658 22.9307C91.6979 22.5339 92.7938 20.9057 92.4255 19.2982C92.0573 17.6907 90.3647 16.7145 88.6326 17.1113C86.913 17.5052 85.8017 19.1238 86.17 20.7313C86.5382 22.3388 88.2461 23.3246 89.9658 22.9307ZM106.549 41.9654C109.216 41.3545 110.823 39.8977 111.421 37.7015L111.571 37.6672L112.182 40.334L117.914 39.0208L114.934 26.0112C114.006 21.9613 109.871 20.4561 104.998 21.5722C99.852 22.7512 97.5298 26.0112 97.8431 29.6117L103.509 28.5236C103.491 27.2424 104.329 26.2635 105.936 25.8953C107.432 25.5527 108.544 26.0585 108.838 27.342L108.853 27.4043C109.121 28.5757 107.907 29.1161 104.708 30.1506C100.907 31.3624 97.995 33.5377 98.9656 37.7745C99.8334 41.5628 102.885 42.8047 106.549 41.9654ZM107.517 37.5467C106.109 37.8693 104.958 37.4248 104.667 36.1537C104.384 34.9201 105.185 33.9497 106.857 33.2912C107.954 32.8695 109.292 32.3005 109.895 31.7821L110.312 33.6015C110.74 35.4707 109.461 37.1014 107.517 37.5467Z" fill="white"/>
</g>
<defs>
<filter id="filter0_d_508_2133" x="0.515864" y="0.994685" width="134.218" height="74.619" filterUnits="userSpaceOnUse" color-interpolation-filters="sRGB">
<feFlood flood-opacity="0" result="BackgroundImageFix"/>
<feColorMatrix in="SourceAlpha" type="matrix" values="0 0 0 0 0 0 0 0 0 0 0 0 0 0 0 0 0 0 127 0" result="hardAlpha"/>
<feOffset/>
<feGaussianBlur stdDeviation="2.32801"/>
<feComposite in2="hardAlpha" operator="out"/>
<feColorMatrix type="matrix" values="0 0 0 0 0 0 0 0 0 0 0 0 0 0 0 0 0 0 0.25 0"/>
<feBlend mode="normal" in2="BackgroundImageFix" result="effect1_dropShadow_508_2133"/>
<feBlend mode="normal" in="SourceGraphic" in2="effect1_dropShadow_508_2133" result="shape"/>
</filter>
</defs>
</svg>
