<svg width="17" height="16" viewBox="0 0 17 16" fill="none" xmlns="http://www.w3.org/2000/svg">
<path d="M6.93018 12.7666C8.30811 12.7666 9.59473 12.3184 10.6406 11.5713L14.5752 15.5059C14.7578 15.6885 14.9985 15.7798 15.2476 15.7798C15.7871 15.7798 16.1772 15.3647 16.1772 14.8335C16.1772 14.5845 16.0942 14.3521 15.9116 14.1694L12.002 10.2515C12.8237 9.17236 13.3135 7.83594 13.3135 6.3833C13.3135 2.87207 10.4414 0 6.93018 0C3.41064 0 0.546875 2.87207 0.546875 6.3833C0.546875 9.89453 3.41064 12.7666 6.93018 12.7666ZM6.93018 11.3887C4.18262 11.3887 1.9248 9.12256 1.9248 6.3833C1.9248 3.64404 4.18262 1.37793 6.93018 1.37793C9.66943 1.37793 11.9355 3.64404 11.9355 6.3833C11.9355 9.12256 9.66943 11.3887 6.93018 11.3887Z" fill="#8E8E93"/>
</svg>
