<svg width="12" height="17" viewBox="0 0 12 17" fill="none" xmlns="http://www.w3.org/2000/svg">
<path d="M0.3125 8.37659C0.3125 9.38101 0.517485 10.2727 0.927455 11.0516C1.34255 11.8306 1.91907 12.4558 2.65701 12.9273C3.39496 13.3936 4.25333 13.6678 5.23214 13.7498V15.5408H2.38028C2.2163 15.5408 2.07793 15.5972 1.96519 15.7099C1.85245 15.8227 1.79608 15.961 1.79608 16.125C1.79608 16.2839 1.85245 16.4197 1.96519 16.5324C2.07793 16.6452 2.2163 16.7015 2.38028 16.7015H9.24472C9.4087 16.7015 9.54707 16.6452 9.65981 16.5324C9.77255 16.4197 9.82892 16.2839 9.82892 16.125C9.82892 15.961 9.77255 15.8227 9.65981 15.7099C9.54707 15.5972 9.4087 15.5408 9.24472 15.5408H6.39286V13.7498C7.37167 13.6678 8.23004 13.3936 8.96799 12.9273C9.70593 12.4558 10.2799 11.8306 10.6899 11.0516C11.105 10.2727 11.3125 9.38101 11.3125 8.37659V6.81614C11.3125 6.65728 11.2561 6.52147 11.1434 6.40873C11.0306 6.29599 10.8948 6.23962 10.736 6.23962C10.572 6.23962 10.4336 6.29599 10.3209 6.40873C10.2081 6.52147 10.1518 6.65728 10.1518 6.81614V8.33046C10.1518 9.20165 9.97241 9.96522 9.61369 10.6212C9.25496 11.2771 8.75019 11.787 8.09936 12.1509C7.45366 12.5096 6.69265 12.689 5.81634 12.689C4.94003 12.689 4.17646 12.5096 3.52564 12.1509C2.87481 11.787 2.37004 11.2771 2.01131 10.6212C1.65259 9.96522 1.47323 9.20165 1.47323 8.33046V6.81614C1.47323 6.65728 1.41686 6.52147 1.30411 6.40873C1.19137 6.29599 1.05301 6.23962 0.88902 6.23962C0.730157 6.23962 0.594354 6.29599 0.481613 6.40873C0.368871 6.52147 0.3125 6.65728 0.3125 6.81614V8.37659ZM5.81634 11.0363C6.32368 11.0363 6.76952 10.9184 7.15387 10.6827C7.54334 10.4469 7.84313 10.1215 8.05324 9.70643C8.26847 9.28621 8.37609 8.80193 8.37609 8.2536V3.11104C8.37609 2.5627 8.26847 2.08099 8.05324 1.6659C7.84313 1.24568 7.54334 0.917701 7.15387 0.681968C6.76952 0.446235 6.32368 0.328369 5.81634 0.328369C5.30388 0.328369 4.85548 0.446235 4.47113 0.681968C4.08678 0.917701 3.78699 1.24568 3.57176 1.6659C3.35653 2.08099 3.24891 2.5627 3.24891 3.11104V8.2536C3.24891 8.80193 3.35653 9.28621 3.57176 9.70643C3.78699 10.1215 4.08678 10.4469 4.47113 10.6827C4.85548 10.9184 5.30388 11.0363 5.81634 11.0363Z" fill="#8E8E93"/>
</svg>
