<svg width="36" height="36" viewBox="0 0 36 36" fill="none" xmlns="http://www.w3.org/2000/svg">
<g clip-path="url(#clip0_1277_4615)">
<path d="M18 0C22.8906 0 23.5008 0.0179999 25.4196 0.108C27.3366 0.198 28.6416 0.4986 29.79 0.945C30.978 1.4022 31.9788 2.0214 32.9796 3.0204C33.8949 3.92021 34.6031 5.00866 35.055 6.21C35.4996 7.3566 35.802 8.6634 35.892 10.5804C35.9766 12.4992 36 13.1094 36 18C36 22.8906 35.982 23.5008 35.892 25.4196C35.802 27.3366 35.4996 28.6416 35.055 29.79C34.6044 30.992 33.896 32.0807 32.9796 32.9796C32.0795 33.8946 30.9912 34.6028 29.79 35.055C28.6434 35.4996 27.3366 35.802 25.4196 35.892C23.5008 35.9766 22.8906 36 18 36C13.1094 36 12.4992 35.982 10.5804 35.892C8.6634 35.802 7.3584 35.4996 6.21 35.055C5.00819 34.6041 3.91955 33.8957 3.0204 32.9796C2.10493 32.0799 1.39668 30.9914 0.945 29.79C0.4986 28.6434 0.198 27.3366 0.108 25.4196C0.0233999 23.5008 0 22.8906 0 18C0 13.1094 0.0179999 12.4992 0.108 10.5804C0.198 8.6616 0.4986 7.3584 0.945 6.21C1.39543 5.00792 2.10385 3.91918 3.0204 3.0204C3.91981 2.10462 5.00837 1.39631 6.21 0.945C7.3584 0.4986 8.6616 0.198 10.5804 0.108C12.4992 0.0233999 13.1094 0 18 0ZM18 9C15.6131 9 13.3239 9.94821 11.636 11.636C9.94821 13.3239 9 15.6131 9 18C9 20.3869 9.94821 22.6761 11.636 24.364C13.3239 26.0518 15.6131 27 18 27C20.3869 27 22.6761 26.0518 24.364 24.364C26.0518 22.6761 27 20.3869 27 18C27 15.6131 26.0518 13.3239 24.364 11.636C22.6761 9.94821 20.3869 9 18 9V9ZM29.7 8.55C29.7 7.95326 29.4629 7.38097 29.041 6.95901C28.619 6.53705 28.0467 6.3 27.45 6.3C26.8533 6.3 26.281 6.53705 25.859 6.95901C25.4371 7.38097 25.2 7.95326 25.2 8.55C25.2 9.14674 25.4371 9.71903 25.859 10.141C26.281 10.5629 26.8533 10.8 27.45 10.8C28.0467 10.8 28.619 10.5629 29.041 10.141C29.4629 9.71903 29.7 9.14674 29.7 8.55ZM18 12.6C19.4322 12.6 20.8057 13.1689 21.8184 14.1816C22.8311 15.1943 23.4 16.5678 23.4 18C23.4 19.4322 22.8311 20.8057 21.8184 21.8184C20.8057 22.8311 19.4322 23.4 18 23.4C16.5678 23.4 15.1943 22.8311 14.1816 21.8184C13.1689 20.8057 12.6 19.4322 12.6 18C12.6 16.5678 13.1689 15.1943 14.1816 14.1816C15.1943 13.1689 16.5678 12.6 18 12.6V12.6Z" fill="white"/>
</g>
<defs>
<clipPath id="clip0_1277_4615">
<rect width="36" height="36" fill="white"/>
</clipPath>
</defs>
</svg>
