<svg width="18" height="11" viewBox="0 0 18 11" fill="none" xmlns="http://www.w3.org/2000/svg">
<path fill-rule="evenodd" clip-rule="evenodd" d="M16.668 0.158203H15.668C15.1157 0.158203 14.668 0.605919 14.668 1.1582V9.82487C14.668 10.3772 15.1157 10.8249 15.668 10.8249H16.668C17.2203 10.8249 17.668 10.3772 17.668 9.82487V1.1582C17.668 0.605919 17.2203 0.158203 16.668 0.158203ZM11.0013 2.49154H12.0013C12.5536 2.49154 13.0013 2.93925 13.0013 3.49154V9.82487C13.0013 10.3772 12.5536 10.8249 12.0013 10.8249H11.0013C10.449 10.8249 10.0013 10.3772 10.0013 9.82487V3.49154C10.0013 2.93925 10.449 2.49154 11.0013 2.49154ZM7.33463 4.82487H6.33463C5.78234 4.82487 5.33463 5.27258 5.33463 5.82487V9.82487C5.33463 10.3772 5.78234 10.8249 6.33463 10.8249H7.33463C7.88691 10.8249 8.33463 10.3772 8.33463 9.82487V5.82487C8.33463 5.27258 7.88691 4.82487 7.33463 4.82487ZM2.66797 6.82487H1.66797C1.11568 6.82487 0.667969 7.27258 0.667969 7.82487V9.82487C0.667969 10.3772 1.11568 10.8249 1.66797 10.8249H2.66797C3.22025 10.8249 3.66797 10.3772 3.66797 9.82487V7.82487C3.66797 7.27258 3.22025 6.82487 2.66797 6.82487Z" fill="white"/>
</svg>
