<svg width="168" height="24" viewBox="0 0 168 24" fill="none" xmlns="http://www.w3.org/2000/svg">
<g clip-path="url(#clip0_1041_3622)">
<path d="M108 24C101.372 24 96 18.6276 96 12C96 5.3724 101.372 0 108 0C114.628 0 120 5.3724 120 12C120 18.6276 114.628 24 108 24ZM116.004 12C115.992 11.6622 115.882 11.3352 115.688 11.0584C115.494 10.7817 115.224 10.5669 114.911 10.4401C114.597 10.3132 114.254 10.2797 113.922 10.3436C113.59 10.4074 113.284 10.566 113.04 10.8C111.675 9.87206 110.07 9.3594 108.42 9.324L109.2 5.58L111.768 6.12C111.799 6.40378 111.929 6.66739 112.137 6.8635C112.344 7.05962 112.614 7.1754 112.899 7.19006C113.184 7.20473 113.465 7.11732 113.692 6.94352C113.918 6.76972 114.075 6.52092 114.135 6.24177C114.194 5.96262 114.152 5.67141 114.016 5.42041C113.881 5.1694 113.66 4.97505 113.393 4.87222C113.127 4.7694 112.833 4.76484 112.564 4.85937C112.294 4.9539 112.068 5.14132 111.924 5.388L108.984 4.8C108.936 4.78945 108.886 4.78855 108.838 4.79735C108.789 4.80615 108.743 4.82448 108.702 4.85127C108.661 4.87805 108.625 4.91277 108.597 4.95341C108.569 4.99405 108.55 5.03979 108.54 5.088L107.652 9.252C105.981 9.27719 104.355 9.79023 102.972 10.728C102.787 10.5539 102.566 10.4222 102.325 10.3419C102.084 10.2616 101.829 10.2346 101.576 10.2629C101.324 10.2911 101.081 10.3739 100.864 10.5056C100.646 10.6372 100.46 10.8145 100.318 11.0251C100.176 11.2358 100.082 11.4748 100.042 11.7256C100.001 11.9764 100.016 12.2329 100.085 12.4775C100.153 12.722 100.274 12.9487 100.439 13.1419C100.604 13.335 100.809 13.49 101.04 13.596C101.026 13.7717 101.026 13.9483 101.04 14.124C101.04 16.812 104.172 18.996 108.036 18.996C111.9 18.996 115.032 16.812 115.032 14.124C115.046 13.9483 115.046 13.7717 115.032 13.596C115.328 13.4488 115.577 13.2208 115.749 12.9384C115.921 12.656 116.009 12.3306 116.004 12ZM104.004 13.2C104.004 12.8817 104.13 12.5765 104.355 12.3515C104.581 12.1264 104.886 12 105.204 12C105.522 12 105.827 12.1264 106.053 12.3515C106.278 12.5765 106.404 12.8817 106.404 13.2C106.404 13.5183 106.278 13.8235 106.053 14.0485C105.827 14.2736 105.522 14.4 105.204 14.4C104.886 14.4 104.581 14.2736 104.355 14.0485C104.13 13.8235 104.004 13.5183 104.004 13.2ZM110.976 16.5C110.125 17.1416 109.077 17.4681 108.012 17.424C106.947 17.4681 105.899 17.1416 105.048 16.5C104.997 16.4378 104.971 16.3589 104.975 16.2786C104.979 16.1982 105.012 16.1222 105.069 16.0653C105.126 16.0085 105.202 15.9748 105.283 15.9708C105.363 15.9669 105.442 15.993 105.504 16.044C106.225 16.5732 107.106 16.8399 108 16.8C108.895 16.8487 109.78 16.5904 110.508 16.068C110.539 16.0336 110.576 16.0059 110.618 15.9866C110.66 15.9673 110.705 15.9569 110.751 15.9559C110.797 15.9548 110.843 15.9633 110.886 15.9808C110.928 15.9982 110.967 16.0242 110.999 16.0572C111.031 16.0902 111.056 16.1295 111.073 16.1726C111.089 16.2156 111.096 16.2616 111.094 16.3077C111.092 16.3537 111.08 16.3988 111.06 16.4401C111.04 16.4815 111.011 16.5182 110.976 16.548V16.5ZM110.76 14.448C110.523 14.448 110.291 14.3776 110.093 14.2458C109.896 14.1139 109.742 13.9265 109.651 13.7072C109.561 13.4879 109.537 13.2467 109.583 13.0139C109.629 12.7811 109.744 12.5673 109.911 12.3995C110.079 12.2316 110.293 12.1174 110.526 12.0711C110.759 12.0248 111 12.0485 111.219 12.1393C111.438 12.2302 111.626 12.384 111.758 12.5813C111.89 12.7787 111.96 13.0107 111.96 13.248C111.967 13.4106 111.94 13.5728 111.882 13.7248C111.824 13.8768 111.735 14.0154 111.622 14.1321C111.508 14.2488 111.373 14.3413 111.222 14.4038C111.072 14.4664 110.911 14.4978 110.748 14.496L110.76 14.448Z" fill="white"/>
</g>
<g clip-path="url(#clip1_1041_3622)">
<path d="M60 0C63.2604 0 63.6672 0.0119999 64.9464 0.0719999C66.2244 0.132 67.0944 0.3324 67.86 0.63C68.652 0.9348 69.3192 1.3476 69.9864 2.0136C70.5966 2.61348 71.0687 3.33911 71.37 4.14C71.6664 4.9044 71.868 5.7756 71.928 7.0536C71.9844 8.3328 72 8.7396 72 12C72 15.2604 71.988 15.6672 71.928 16.9464C71.868 18.2244 71.6664 19.0944 71.37 19.86C71.0696 20.6613 70.5973 21.3871 69.9864 21.9864C69.3864 22.5964 68.6608 23.0685 67.86 23.37C67.0956 23.6664 66.2244 23.868 64.9464 23.928C63.6672 23.9844 63.2604 24 60 24C56.7396 24 56.3328 23.988 55.0536 23.928C53.7756 23.868 52.9056 23.6664 52.14 23.37C51.3388 23.0694 50.613 22.5971 50.0136 21.9864C49.4033 21.3866 48.9311 20.661 48.63 19.86C48.3324 19.0956 48.132 18.2244 48.072 16.9464C48.0156 15.6672 48 15.2604 48 12C48 8.7396 48.012 8.3328 48.072 7.0536C48.132 5.7744 48.3324 4.9056 48.63 4.14C48.9303 3.33862 49.4026 2.61279 50.0136 2.0136C50.6132 1.40308 51.3389 0.930875 52.14 0.63C52.9056 0.3324 53.7744 0.132 55.0536 0.0719999C56.3328 0.0155999 56.7396 0 60 0ZM60 6C58.4087 6 56.8826 6.63214 55.7574 7.75736C54.6321 8.88258 54 10.4087 54 12C54 13.5913 54.6321 15.1174 55.7574 16.2426C56.8826 17.3679 58.4087 18 60 18C61.5913 18 63.1174 17.3679 64.2426 16.2426C65.3679 15.1174 66 13.5913 66 12C66 10.4087 65.3679 8.88258 64.2426 7.75736C63.1174 6.63214 61.5913 6 60 6ZM67.8 5.7C67.8 5.30218 67.642 4.92064 67.3607 4.63934C67.0794 4.35804 66.6978 4.2 66.3 4.2C65.9022 4.2 65.5206 4.35804 65.2393 4.63934C64.958 4.92064 64.8 5.30218 64.8 5.7C64.8 6.09783 64.958 6.47936 65.2393 6.76066C65.5206 7.04197 65.9022 7.2 66.3 7.2C66.6978 7.2 67.0794 7.04197 67.3607 6.76066C67.642 6.47936 67.8 6.09783 67.8 5.7ZM60 8.4C60.9548 8.4 61.8705 8.77928 62.5456 9.45442C63.2207 10.1295 63.6 11.0452 63.6 12C63.6 12.9548 63.2207 13.8705 62.5456 14.5456C61.8705 15.2207 60.9548 15.6 60 15.6C59.0452 15.6 58.1295 15.2207 57.4544 14.5456C56.7793 13.8705 56.4 12.9548 56.4 12C56.4 11.0452 56.7793 10.1295 57.4544 9.45442C58.1295 8.77928 59.0452 8.4 60 8.4Z" fill="white"/>
</g>
<path d="M156 24C149.372 24 144 18.6276 144 12C144 5.3724 149.372 0 156 0C162.628 0 168 5.3724 168 12C168 18.6276 162.628 24 156 24ZM152.268 13.404L152.284 13.3956L153.328 16.8396C153.462 17.2128 153.647 17.28 153.871 17.2488C154.097 17.2188 154.216 17.0976 154.363 16.956L155.789 15.5784L158.849 17.844C159.408 18.1524 159.81 17.9928 159.949 17.3256L161.938 7.9392C162.157 7.0656 161.773 6.7152 161.095 6.9936L149.416 11.5056C148.619 11.8248 148.624 12.2712 149.272 12.4692L152.268 13.4052V13.404Z" fill="white"/>
<g clip-path="url(#clip2_1041_3622)">
<path d="M12.073 0C5.4051 0 0 5.4051 0 12.073C0 18.0987 4.41511 23.0933 10.1872 24V15.5622H7.12068V12.073H10.1872V9.41335C10.1872 6.38785 11.9885 4.71694 14.7472 4.71694C16.068 4.71694 17.4492 4.95236 17.4492 4.95236V7.92233H15.928C14.4273 7.92233 13.9601 8.85316 13.9601 9.80814V12.073H17.3079L16.7731 15.5622H13.9601V24C19.731 23.0945 24.1461 18.0975 24.1461 12.073C24.1461 5.4051 18.741 0 12.073 0Z" fill="white"/>
</g>
<defs>
<clipPath id="clip0_1041_3622">
<rect width="24" height="24" fill="white" transform="translate(96)"/>
</clipPath>
<clipPath id="clip1_1041_3622">
<rect width="24" height="24" fill="white" transform="translate(48)"/>
</clipPath>
<clipPath id="clip2_1041_3622">
<rect width="24" height="24" fill="white"/>
</clipPath>
</defs>
</svg>
