<svg width="184" height="123" viewBox="0 0 184 123" fill="none" xmlns="http://www.w3.org/2000/svg">
<g filter="url(#filter0_d_508:2124)">
<path fill-rule="evenodd" clip-rule="evenodd" d="M54.9804 7.27035C32.9732 3.92953 12.4245 19.0616 9.08371 41.0688C5.74289 63.076 20.875 83.6247 42.8822 86.9655L120.362 98.7274C122.097 104.888 115.541 113.179 115.541 113.179C115.541 113.179 130.663 111.708 134.336 100.671C154.872 101.856 173.31 87.221 176.459 66.4774C179.8 44.4702 164.668 23.9216 142.661 20.5807L54.9804 7.27035Z" fill="white"/>
<path d="M38.3373 31.2722L40.566 31.6412L41.287 27.2866L45.8114 28.0356L45.0905 32.3902L47.3141 32.7583L49.0593 22.2168L46.8357 21.8486L46.1156 26.1981L41.5912 25.449L42.3112 21.0996L40.0825 20.7306L38.3373 31.2722ZM52.3672 33.7535C54.7658 34.1506 56.5303 32.7558 56.9334 30.3211C57.339 27.871 56.1173 25.9871 53.7187 25.59C51.3201 25.1929 49.5564 26.5826 49.1508 29.0327C48.7477 31.4673 49.9686 33.3564 52.3672 33.7535ZM52.6587 32.0566C51.552 31.8734 51.1537 30.7657 51.3821 29.3862C51.6105 28.0068 52.3454 27.0813 53.452 27.2646C54.5381 27.4444 54.9356 28.5572 54.7072 29.9367C54.4788 31.3162 53.7448 32.2364 52.6587 32.0566ZM58.7814 34.6568L61.0977 35.0402L63.2797 30.293L63.3775 30.3092L63.9132 35.5064L66.2346 35.8907L69.6899 28.3399L67.4766 27.9734L65.3978 33.0551L65.3309 33.044L64.9081 27.5482L62.7308 27.1878L60.5749 32.2884L60.5029 32.2765L60.1572 26.7617L57.9388 26.3944L58.7814 34.6568ZM75.2177 37.5101C76.4942 37.7214 77.2801 37.0953 77.6928 36.4867L77.7855 36.502L77.5759 37.7683L79.7377 38.1262L81.4829 27.5846L79.2953 27.2224L78.6392 31.1858L78.5722 31.1747C78.3854 30.4828 77.8826 29.5904 76.5598 29.3714C74.8252 29.0843 73.1349 30.19 72.685 32.9077C72.247 35.5534 73.4162 37.2118 75.2177 37.5101ZM76.2015 35.8802C75.1257 35.7021 74.6974 34.6476 74.9258 33.2681C75.1524 31.8989 75.8849 31.0524 76.9709 31.2322C78.0364 31.4086 78.4844 32.4082 78.2509 33.8186C78.0174 35.2289 77.2566 36.0549 76.2015 35.8802ZM84.7972 39.1224C87.1959 39.5195 88.9604 38.1247 89.3635 35.69C89.7691 33.24 88.5474 31.356 86.1487 30.9589C83.7501 30.5618 81.9864 31.9515 81.5808 34.4016C81.1778 36.8362 82.3986 38.7253 84.7972 39.1224ZM85.0887 37.4256C83.9821 37.2423 83.5838 36.1346 83.8121 34.7551C84.0405 33.3757 84.7754 32.4503 85.8821 32.6335C86.9682 32.8133 87.3656 33.9262 87.1373 35.3056C86.9089 36.6851 86.1748 37.6054 85.0887 37.4256ZM96.93 30.1419L94.7012 29.7729L92.956 40.3145L95.1848 40.6835L96.93 30.1419ZM103.33 42.1906C105.286 42.5144 106.761 41.7803 107.313 40.3644L105.307 39.8949C104.986 40.4605 104.368 40.6807 103.637 40.5597C102.54 40.3782 101.966 39.5374 102.161 38.3587L102.162 38.3535L107.546 39.2449L107.645 38.6426C108.09 35.9558 106.684 34.3585 104.594 34.0125C102.267 33.6274 100.485 35.03 100.082 37.4698C99.6666 39.9765 100.895 41.7875 103.33 42.1906ZM102.387 36.9947C102.582 36.1016 103.386 35.4943 104.359 35.6553C105.311 35.813 105.857 36.6015 105.707 37.5443L102.387 36.9947ZM111.139 35.2019L108.874 34.827L110.485 39.155L107.483 42.7195L109.748 43.0944L111.734 40.6152L112.841 43.6066L115.08 43.9773L113.383 39.6348L116.327 36.0609L114.078 35.6885L112.133 38.2063L111.139 35.2019ZM115.54 47.0995L117.733 47.4625L118.433 43.2314L118.5 43.2425C118.695 43.9516 119.237 44.7976 120.513 45.0089C122.315 45.3072 123.956 44.114 124.394 41.4684C124.844 38.7506 123.6 37.1592 121.866 36.872C120.543 36.653 119.78 37.3357 119.38 37.9306L119.282 37.9144L119.502 36.5864L117.34 36.2285L115.54 47.0995ZM118.832 40.5369C119.065 39.1266 119.811 38.3246 120.877 38.501C121.963 38.6808 122.384 39.7182 122.157 41.0874C121.929 42.4668 121.183 43.3271 120.107 43.149C119.052 42.9743 118.598 41.9472 118.832 40.5369ZM124.913 45.6052L127.106 45.9682L127.847 41.4952C128.008 40.5224 128.829 39.9709 129.797 40.1311C130.1 40.1813 130.509 40.3018 130.703 40.4028L131.026 38.4572C130.838 38.3785 130.57 38.3024 130.349 38.2658C129.463 38.1192 128.652 38.5138 128.202 39.444L128.12 39.4304L128.348 38.0509L126.222 37.699L124.913 45.6052ZM133.764 47.2291C135.72 47.5529 137.195 46.8188 137.747 45.4029L135.741 44.9334C135.42 45.499 134.802 45.7192 134.071 45.5982C132.975 45.4167 132.4 44.5759 132.595 43.3972L132.596 43.392L137.98 44.2834L138.08 43.6811C138.524 40.9943 137.118 39.397 135.028 39.051C132.701 38.6659 130.92 40.0685 130.516 42.5082C130.101 45.015 131.329 46.826 133.764 47.2291ZM132.821 42.0331C133.016 41.14 133.82 40.5328 134.793 40.6938C135.745 40.8515 136.292 41.64 136.141 42.5828L132.821 42.0331ZM146.073 43.3017C146.119 41.8126 145.094 40.7176 143.097 40.3869C141.074 40.052 139.586 40.7681 139.339 42.2926C139.138 43.4756 139.757 44.3661 141.25 44.9306L142.574 45.43C143.241 45.6832 143.513 45.9874 143.458 46.3854C143.37 46.8521 142.805 47.1023 142.038 46.9754C141.256 46.8458 140.791 46.4252 140.764 45.7596L138.589 45.5158C138.544 47.0632 139.676 48.2079 141.771 48.5547C143.82 48.8939 145.46 48.0918 145.723 46.5331C145.907 45.3895 145.274 44.5814 143.792 44.0135L142.409 43.4883C141.7 43.2069 141.469 42.9095 141.537 42.5295C141.61 42.0551 142.196 41.8349 142.876 41.9474C143.638 42.0735 144.022 42.5654 144.045 43.0929L146.073 43.3017ZM153.922 44.6011C153.968 43.1121 152.943 42.017 150.946 41.6864C148.923 41.3515 147.435 42.0676 147.188 43.592C146.987 44.775 147.606 45.6655 149.099 46.23L150.423 46.7295C151.09 46.9827 151.362 47.2868 151.307 47.6849C151.219 48.1516 150.654 48.4018 149.887 48.2748C149.105 48.1453 148.64 47.7247 148.613 47.0591L146.438 46.8153C146.393 48.3627 147.526 49.5074 149.621 49.8542C151.669 50.1933 153.309 49.3913 153.572 47.8325C153.757 46.689 153.124 45.8809 151.642 45.3129L150.258 44.7878C149.549 44.5064 149.318 44.209 149.386 43.8289C149.459 43.3545 150.046 43.1343 150.725 43.2468C151.487 43.3729 151.871 43.8649 151.894 44.3923L153.922 44.6011ZM44.7516 50.5791L46.9444 50.9421L47.73 46.1964C47.8749 45.3213 48.5271 44.8317 49.258 44.9527C49.9786 45.072 50.3806 45.6463 50.252 46.4235L49.4356 51.3545L51.5614 51.7065L52.3607 46.8784C52.4962 46.06 53.0567 45.5816 53.8545 45.7137C54.5545 45.8296 55.0071 46.354 54.8614 47.2342L54.0527 52.1189L56.2403 52.4811L57.1205 47.164C57.4043 45.4499 56.5471 44.3032 55.0749 44.0595C53.9168 43.8678 52.918 44.3106 52.4438 45.1628L52.3614 45.1492C52.2609 44.1912 51.5491 43.4758 50.463 43.296C49.3975 43.1196 48.4957 43.552 48.012 44.4291L47.9194 44.4138L48.1503 43.0189L46.0605 42.6729L44.7516 50.5791ZM58.2622 55.8619C59.8939 56.132 60.8967 55.4413 61.5558 54.239L66.0774 45.9974L63.7577 45.6028L61.1442 51.1353L61.0618 51.1217L60.3862 45.0446L58.0803 44.6628L59.57 53.265L59.3859 53.5783C58.975 54.2718 58.4183 54.2166 57.6854 53.852L56.9202 55.407C57.2121 55.5928 57.7063 55.7699 58.2622 55.8619ZM74.1814 47.3284L72.6938 47.0822L73.0074 45.188L70.8147 44.825L70.5011 46.7192L69.4202 46.5402L69.1475 48.1873L70.2284 48.3663L69.5467 52.4841C69.2799 54.0317 70.2081 54.9733 71.8097 55.1697C72.3793 55.2429 72.7996 55.1961 73.0328 55.1607L72.9581 53.4719C72.8466 53.4746 72.6064 53.4877 72.4005 53.4536C71.963 53.3812 71.6866 53.1662 71.7872 52.5588L72.4212 48.7293L73.9087 48.9756L74.1814 47.3284ZM74.011 55.4231L76.2037 55.7861L76.9442 51.3131C77.1053 50.3403 77.9264 49.7888 78.894 49.949C79.1977 49.9993 79.6061 50.1197 79.801 50.2207L80.1231 48.2751C79.9351 48.1964 79.6674 48.1203 79.4461 48.0837C78.5608 47.9371 77.7498 48.3317 77.2997 49.262L77.2173 49.2483L77.4457 47.8689L75.3199 47.5169L74.011 55.4231ZM85.2793 53.83C85.1089 54.8912 84.2911 55.327 83.5036 55.1966C82.6749 55.0594 82.2359 54.3891 82.385 53.4566L83.1536 48.8138L80.9609 48.4508L80.1275 53.4848C79.8267 55.3335 80.721 56.6397 82.3115 56.903C83.5005 57.0999 84.4564 56.6288 84.9649 55.7611L85.0473 55.7747L84.8095 57.2108L86.9147 57.5594L88.2236 49.6532L86.0309 49.2902L85.2793 53.83ZM91.9563 58.5526C93.9122 58.8765 95.3876 58.1424 95.9393 56.7265L93.9334 56.257C93.6124 56.8225 92.9942 57.0428 92.2633 56.9218C91.1669 56.7403 90.5922 55.8995 90.7874 54.7208L90.7882 54.7156L96.1722 55.607L96.2719 55.0047C96.7167 52.3179 95.3101 50.7206 93.2203 50.3746C90.8937 49.9895 89.1121 51.3921 88.7081 53.8318C88.2931 56.3386 89.5216 58.1496 91.9563 58.5526ZM91.0132 53.3567C91.2086 52.4636 92.0125 51.8564 92.9853 52.0174C93.9376 52.1751 94.4839 52.9636 94.3331 53.9064L91.0132 53.3567ZM107.33 55.1327C107.376 53.6436 106.351 52.5485 104.354 52.2179C102.331 51.883 100.843 52.5991 100.596 54.1236C100.395 55.3066 101.014 56.1971 102.507 56.7615L103.831 57.261C104.498 57.5142 104.77 57.8184 104.715 58.2164C104.627 58.6831 104.062 58.9333 103.295 58.8064C102.513 58.6768 102.048 58.2562 102.021 57.5906L99.8457 57.3468C99.8011 58.8942 100.934 60.0389 103.029 60.3857C105.077 60.7249 106.717 59.9228 106.98 58.3641C107.165 57.2205 106.531 56.4124 105.05 55.8445L103.666 55.3193C102.957 55.0379 102.726 54.7405 102.794 54.3605C102.867 53.8861 103.454 53.6659 104.133 53.7783C104.895 53.9045 105.279 54.3964 105.302 54.9239L107.33 55.1327ZM111.243 61.7457C113.199 62.0695 114.675 61.3354 115.226 59.9196L113.22 59.45C112.899 60.0156 112.281 60.2358 111.55 60.1148C110.454 59.9333 109.879 59.0925 110.074 57.9138L110.075 57.9086L115.459 58.8L115.559 58.1978C116.004 55.5109 114.597 53.9136 112.507 53.5677C110.181 53.1825 108.399 54.5851 107.995 57.0249C107.58 59.5316 108.809 61.3426 111.243 61.7457ZM110.3 56.5498C110.496 55.6567 111.299 55.0494 112.272 55.2104C113.224 55.3681 113.771 56.1566 113.62 57.0994L110.3 56.5498ZM119.977 52.2024L117.784 51.8394L116.039 62.3809L118.231 62.7439L119.977 52.2024ZM125.258 55.7844L123.689 55.5245L123.776 54.9944C123.865 54.4591 124.133 54.1809 124.777 54.2874C125.039 54.3308 125.297 54.4318 125.463 54.5174L126.122 52.9342C125.863 52.8066 125.282 52.5731 124.608 52.4615C123.121 52.2152 121.875 52.871 121.59 54.5902L121.496 55.1615L120.379 54.9766L120.106 56.6237L121.223 56.8086L120.187 63.0677L122.38 63.4307L123.416 57.1716L124.986 57.4316L125.258 55.7844ZM133.578 57.1618L132.091 56.9155L132.404 55.0214L130.212 54.6583L129.898 56.5525L128.817 56.3736L128.544 58.0207L129.625 58.1996L128.944 62.3174C128.677 63.8651 129.605 64.8067 131.207 65.0031C131.776 65.0762 132.196 65.0295 132.43 64.994L132.355 63.3053C132.243 63.308 132.003 63.3211 131.797 63.287C131.36 63.2146 131.083 62.9996 131.184 62.3922L131.818 58.5627L133.306 58.8089L133.578 57.1618ZM136.87 65.9882C139.268 66.3853 141.033 64.9904 141.436 62.5558C141.841 60.1057 140.62 58.2218 138.221 57.8247C135.822 57.4276 134.059 58.8173 133.653 61.2674C133.25 63.702 134.471 65.5911 136.87 65.9882ZM137.161 64.2913C136.054 64.1081 135.656 63.0004 135.884 61.6209C136.113 60.2414 136.848 59.316 137.954 59.4992C139.04 59.679 139.438 60.7919 139.21 62.1714C138.981 63.5508 138.247 64.4711 137.161 64.2913ZM34.3883 58.9856L32.9007 58.7393L33.2143 56.8451L31.0216 56.4821L30.708 58.3763L29.6271 58.1973L29.3544 59.8444L30.4353 60.0234L29.7536 64.1412C29.4868 65.6888 30.415 66.6304 32.0166 66.8268C32.5862 66.9 33.0064 66.8532 33.2397 66.8178L33.165 65.129C33.0535 65.1317 32.8133 65.1448 32.6074 65.1107C32.1699 65.0383 31.8935 64.8233 31.994 64.2159L32.628 60.3864L34.1156 60.6327L34.3883 58.9856ZM37.3371 62.9006C37.511 61.8823 38.2327 61.3883 39.1283 61.5366C40.0188 61.684 40.4492 62.3423 40.283 63.3142L39.5144 67.9571L41.7071 68.3201L42.5405 63.2861C42.8524 61.4339 41.947 60.1312 40.2998 59.8585C39.1005 59.6599 38.2038 60.0932 37.6893 60.9652L37.5966 60.9498L38.2639 56.9195L36.1329 56.5668L34.3877 67.1083L36.5804 67.4713L37.3371 62.9006ZM46.6894 69.3036C49.088 69.7007 50.8526 68.3058 51.2556 65.8712C51.6613 63.4211 50.4395 61.5371 48.0409 61.14C45.6423 60.7429 43.8786 62.1326 43.473 64.5827C43.0699 67.0174 44.2908 68.9065 46.6894 69.3036ZM46.9809 67.6067C45.8743 67.4235 45.4759 66.3157 45.7043 64.9363C45.9327 63.5568 46.6676 62.6314 47.7743 62.8146C48.8603 62.9944 49.2578 64.1073 49.0294 65.4867C48.8011 66.8662 48.067 67.7865 46.9809 67.6067ZM59.256 65.4188C59.3016 63.9297 58.2772 62.8347 56.28 62.504C54.2572 62.1691 52.7689 62.8852 52.5218 64.4097C52.3207 65.5927 52.9401 66.4832 54.4331 67.0477L55.7571 67.5471C56.4238 67.8003 56.6961 68.1045 56.6408 68.5025C56.5529 68.9692 55.9879 69.2194 55.221 69.0925C54.4386 68.963 53.9741 68.5423 53.9468 67.8768L51.7714 67.6329C51.7268 69.1803 52.8593 70.325 54.9543 70.6718C57.0029 71.011 58.6428 70.209 58.9062 68.6502C59.0902 67.5067 58.4572 66.6985 56.9753 66.1306L55.5921 65.6054C54.8824 65.324 54.6514 65.0266 54.7196 64.6466C54.7928 64.1722 55.3793 63.952 56.0587 64.0645C56.8205 64.1906 57.2044 64.6825 57.2282 65.21L59.256 65.4188ZM63.1689 72.0318C65.1248 72.3556 66.6002 71.6215 67.1519 70.2057L65.146 69.7361C64.825 70.3017 64.2068 70.5219 63.4759 70.4009C62.3795 70.2194 61.8048 69.3786 62 68.1999L62.0008 68.1948L67.3848 69.0861L67.4845 68.4839C67.9294 65.797 66.5227 64.1998 64.4329 63.8538C62.1063 63.4686 60.3247 64.8712 59.9207 67.311C59.5057 69.8177 60.7343 71.6287 63.1689 72.0318ZM62.2258 66.8359C62.4212 65.9428 63.2251 65.3355 64.1979 65.4966C65.1502 65.6542 65.6965 66.4427 65.5458 67.3855L62.2258 66.8359ZM73.2589 73.6969C74.4273 73.8904 75.2683 73.5061 75.7762 72.8339L75.838 72.8441L75.6565 73.9405L77.736 74.2848L78.6188 68.9522C78.9307 67.0683 77.4663 66.0115 75.7059 65.7201C73.8117 65.4065 72.4161 66.1062 71.8738 67.4971L73.8746 67.9976C74.1108 67.4973 74.6431 67.1888 75.4306 67.3192C76.177 67.4427 76.542 67.8892 76.4346 68.5377L76.4295 68.5686C76.3451 69.0782 75.7936 69.0556 74.3971 68.962C72.8085 68.847 71.3164 69.1394 71.0241 70.9049C70.765 72.4697 71.7508 73.4473 73.2589 73.6969ZM74.1374 72.2876C73.4631 72.176 73.0313 71.7819 73.131 71.1797C73.2332 70.562 73.7931 70.3427 74.583 70.3624C75.0728 70.3747 75.8739 70.391 76.1654 70.2595L76.0265 71.0985C75.8893 71.9272 75.0999 72.447 74.1374 72.2876ZM79.1473 74.5184L81.34 74.8814L82.0805 70.4085C82.2416 69.4356 83.0626 68.8841 84.0303 69.0443C84.334 69.0946 84.7424 69.2151 84.9372 69.3161L85.2593 67.3704C85.0714 67.2917 84.8037 67.2157 84.5824 67.179C83.6971 67.0325 82.8861 67.427 82.4359 68.3573L82.3536 68.3437L82.582 66.9642L80.4561 66.6123L79.1473 74.5184ZM87.9669 76.1372C90.3655 76.5343 92.13 75.1394 92.5331 72.7048C92.9387 70.2547 91.717 68.3708 89.3184 67.9737C86.9198 67.5766 85.1561 68.9663 84.7505 71.4164C84.3474 73.851 85.5683 75.7401 87.9669 76.1372ZM88.2584 74.4403C87.1517 74.2571 86.7534 73.1493 86.9818 71.7699C87.2101 70.3904 87.9451 69.465 89.0517 69.6482C90.1378 69.828 90.5353 70.9409 90.3069 72.3204C90.0785 73.6998 89.3444 74.6201 88.2584 74.4403ZM98.647 74.2881C98.4766 75.3493 97.6588 75.785 96.8713 75.6547C96.0426 75.5175 95.6035 74.8472 95.7526 73.9147L96.5213 69.2719L94.3285 68.9089L93.4951 73.9429C93.1944 75.7916 94.0887 77.0978 95.6792 77.3611C96.8682 77.5579 97.824 77.0869 98.3326 76.2192L98.4149 76.2328L98.1772 77.6689L100.282 78.0174L101.591 70.1113L99.3986 69.7482L98.647 74.2881ZM104.696 74.0521C104.87 73.0338 105.576 72.5372 106.461 72.6838C107.341 72.8295 107.776 73.4938 107.611 74.4606L106.842 79.1034L109.035 79.4664L109.868 74.4324C110.173 72.5897 109.28 71.2784 107.633 71.0057C106.459 70.8114 105.515 71.2473 105.007 72.1098L104.914 72.0945L105.145 70.6996L103.055 70.3536L101.746 78.2598L103.939 78.6228L104.696 74.0521ZM113.365 80.3155C114.642 80.5269 115.428 79.9007 115.84 79.2922L115.933 79.3075L115.723 80.5737L117.885 80.9316L119.63 70.3901L117.443 70.0279L116.787 73.9913L116.72 73.9802C116.533 73.2882 116.03 72.3959 114.707 72.1769C112.973 71.8897 111.283 72.9954 110.833 75.7132C110.395 78.3589 111.564 80.0173 113.365 80.3155ZM114.349 78.6857C113.273 78.5076 112.845 77.453 113.073 76.0736C113.3 74.7044 114.032 73.8579 115.119 74.0377C116.184 74.2141 116.632 75.2137 116.398 76.6241C116.165 78.0344 115.404 78.8604 114.349 78.6857ZM122.463 81.6895L124.656 82.0525L125.441 77.3068C125.586 76.4317 126.238 75.9421 126.969 76.0631C127.69 76.1824 128.092 76.7567 127.963 77.5339L127.147 82.4649L129.273 82.8169L130.072 77.9888C130.208 77.1704 130.768 76.692 131.566 76.8241C132.266 76.94 132.718 77.4644 132.573 78.3446L131.764 83.2293L133.952 83.5915L134.832 78.2744C135.116 76.5604 134.258 75.4137 132.786 75.1699C131.628 74.9782 130.629 75.421 130.155 76.2732L130.073 76.2596C129.972 75.3016 129.26 74.5862 128.174 74.4064C127.109 74.23 126.207 74.6624 125.723 75.5395L125.631 75.5242L125.862 74.1293L123.772 73.7833L122.463 81.6895ZM138.971 84.5812C140.927 84.905 142.403 84.1709 142.954 82.755L140.948 82.2855C140.627 82.8511 140.009 83.0713 139.278 82.9503C138.182 82.7688 137.607 81.928 137.802 80.7493L137.803 80.7441L143.187 81.6355L143.287 81.0332C143.732 78.3464 142.325 76.7491 140.235 76.4031C137.909 76.018 136.127 77.4206 135.723 79.8604C135.308 82.3671 136.537 84.1781 138.971 84.5812ZM138.028 79.3853C138.224 78.4922 139.028 77.8849 140 78.0459C140.953 78.2036 141.499 78.9921 141.348 79.9349L138.028 79.3853ZM146.174 82.3679L148.125 82.6908L148.154 82.5158C148.33 81.5138 148.768 81.1051 149.662 80.7507C150.719 80.3387 151.472 79.6861 151.673 78.4765C151.971 76.6749 150.693 75.3846 148.65 75.0463C146.781 74.7369 145.096 75.4627 144.709 77.5139L146.809 77.8616C146.979 77.0277 147.676 76.683 148.35 76.7946C149.045 76.9097 149.529 77.4658 149.411 78.1813C149.299 78.8556 148.736 79.2224 148.036 79.5191C147.081 79.9215 146.506 80.3922 146.203 82.1929L146.174 82.3679ZM146.642 85.83C147.301 85.9391 147.964 85.4829 148.082 84.7992C148.189 84.124 147.709 83.4787 147.05 83.3696C146.37 83.2571 145.718 83.715 145.612 84.3901C145.493 85.0739 145.963 85.7175 146.642 85.83Z" fill="#172153"/>
</g>
<defs>
<filter id="filter0_d_508:2124" x="2.09135" y="0.278481" width="181.36" height="119.43" filterUnits="userSpaceOnUse" color-interpolation-filters="sRGB">
<feFlood flood-opacity="0" result="BackgroundImageFix"/>
<feColorMatrix in="SourceAlpha" type="matrix" values="0 0 0 0 0 0 0 0 0 0 0 0 0 0 0 0 0 0 127 0" result="hardAlpha"/>
<feOffset/>
<feGaussianBlur stdDeviation="3.26487"/>
<feComposite in2="hardAlpha" operator="out"/>
<feColorMatrix type="matrix" values="0 0 0 0 0 0 0 0 0 0 0 0 0 0 0 0 0 0 0.25 0"/>
<feBlend mode="normal" in2="BackgroundImageFix" result="effect1_dropShadow_508:2124"/>
<feBlend mode="normal" in="SourceGraphic" in2="effect1_dropShadow_508:2124" result="shape"/>
</filter>
</defs>
</svg>
