<svg width="18" height="18" viewBox="0 0 18 18" fill="none" xmlns="http://www.w3.org/2000/svg">
<path fill-rule="evenodd" clip-rule="evenodd" d="M17.9995 17.8975L13.2966 16.8451C12.009 17.5382 10.5711 17.8997 9.11103 17.8975C4.20194 17.8975 0.222585 13.8912 0.222585 8.94876C0.222585 4.00636 4.20194 0 9.11103 0C14.0201 0 17.9995 4.00636 17.9995 8.94876C18.0017 10.4187 17.6426 11.8664 16.9542 13.1627L17.9995 17.8975ZM12.1301 9.44587L9.06309 12.5714L5.99606 9.44587C5.61078 9.05324 5.39433 8.52073 5.39433 7.96547C5.39433 7.41021 5.61078 6.8777 5.99606 6.48507C6.18683 6.29066 6.41331 6.13645 6.66257 6.03123C6.91182 5.92602 7.17898 5.87187 7.44877 5.87187C7.71856 5.87187 7.98571 5.92602 8.23497 6.03123C8.48423 6.13645 8.71071 6.29066 8.90148 6.48507L9.06309 6.64977L9.22471 6.48507C9.41548 6.29066 9.64196 6.13645 9.89122 6.03123C10.1405 5.92602 10.4076 5.87187 10.6774 5.87187C10.9472 5.87187 11.2144 5.92602 11.4636 6.03123C11.7129 6.13645 11.9394 6.29066 12.1301 6.48507C12.3209 6.67948 12.4722 6.91027 12.5755 7.16428C12.6787 7.41829 12.7319 7.69053 12.7319 7.96547C12.7319 8.2404 12.6787 8.51265 12.5755 8.76665C12.4722 9.02066 12.3209 9.25146 12.1301 9.44587Z" fill="white"/>
</svg>
