<svg width="28" height="27" viewBox="0 0 28 27" fill="none" xmlns="http://www.w3.org/2000/svg">
<path fill-rule="evenodd" clip-rule="evenodd" d="M27.6884 26.9285L20.6125 25.3451C18.6752 26.3878 16.5117 26.9318 14.3149 26.9285C6.92872 26.9285 0.941406 20.9005 0.941406 13.4642C0.941406 6.02794 6.92872 0 14.3149 0C21.7011 0 27.6884 6.02794 27.6884 13.4642C27.6917 15.6759 27.1514 17.8541 26.1157 19.8045L27.6884 26.9285ZM18.8555 14.2123L14.2409 18.9149L9.62625 14.2123C9.04656 13.6215 8.72089 12.8203 8.72089 11.9849C8.72089 11.1494 9.04656 10.3482 9.62625 9.75749C9.91329 9.46498 10.254 9.23295 10.6291 9.07465C11.0041 8.91635 11.4061 8.83487 11.812 8.83487C12.2179 8.83487 12.6199 8.91635 12.9949 9.07465C13.3699 9.23295 13.7107 9.46498 13.9977 9.75749L14.2409 10.0053L14.4841 9.75749C14.7711 9.46498 15.1119 9.23295 15.4869 9.07465C15.8619 8.91635 16.2639 8.83487 16.6698 8.83487C17.0757 8.83487 17.4777 8.91635 17.8527 9.07465C18.2277 9.23295 18.5685 9.46498 18.8555 9.75749C19.1426 10.05 19.3703 10.3972 19.5256 10.7794C19.6809 11.1616 19.7609 11.5712 19.7609 11.9849C19.7609 12.3985 19.6809 12.8082 19.5256 13.1903C19.3703 13.5725 19.1426 13.9198 18.8555 14.2123Z" fill="white"/>
</svg>
