<svg width="55" height="22" viewBox="0 0 55 22" fill="none" xmlns="http://www.w3.org/2000/svg">
<path d="M16.3672 16.9006C19.0552 16.9006 20.6519 14.7986 20.6519 11.239C20.6519 9.89868 20.3955 8.77075 19.9048 7.89917C19.1943 6.54419 17.9712 5.81177 16.4258 5.81177C14.126 5.81177 12.5 7.35718 12.5 9.52515C12.5 11.5613 13.9648 13.0408 15.979 13.0408C17.2168 13.0408 18.2202 12.4622 18.7183 11.4587H18.7402C18.7402 11.4587 18.7695 11.4587 18.7769 11.4587C18.7915 11.4587 18.8428 11.4587 18.8428 11.4587C18.8428 13.8757 17.9272 15.3186 16.3818 15.3186C15.4736 15.3186 14.7705 14.8206 14.5288 14.0222H12.6465C12.9614 15.7581 14.4336 16.9006 16.3672 16.9006ZM16.4331 11.5393C15.2173 11.5393 14.353 10.675 14.353 9.46655C14.353 8.28735 15.2612 7.38647 16.4404 7.38647C17.6196 7.38647 18.5278 8.302 18.5278 9.49585C18.5278 10.675 17.6416 11.5393 16.4331 11.5393Z" fill="white"/>
<path d="M23.743 16.7981C24.4388 16.7981 24.9148 16.3 24.9148 15.6409C24.9148 14.9744 24.4388 14.4836 23.743 14.4836C23.0545 14.4836 22.5711 14.9744 22.5711 15.6409C22.5711 16.3 23.0545 16.7981 23.743 16.7981ZM23.743 11.3049C24.4388 11.3049 24.9148 10.8142 24.9148 10.155C24.9148 9.48853 24.4388 8.9978 23.743 8.9978C23.0545 8.9978 22.5711 9.48853 22.5711 10.155C22.5711 10.8142 23.0545 11.3049 23.743 11.3049Z" fill="white"/>
<path d="M31.7706 16.6443H33.5797V14.6741H35.0079V13.0774H33.5797V6.07544H30.9137C29.046 8.88794 27.5592 11.239 26.607 12.9895V14.6741H31.7706V16.6443ZM28.3575 13.0115C29.588 10.8435 30.6866 9.10767 31.6974 7.61353H31.7999V13.1213H28.3575V13.0115Z" fill="white"/>
<path d="M39.0365 16.6443H40.9262V6.07544H39.0438L36.2826 8.00903V9.82544L38.912 7.97974H39.0365V16.6443Z" fill="white"/>
</svg>
