<svg width="60" height="23" viewBox="0 0 60 23" fill="none" xmlns="http://www.w3.org/2000/svg">
<path d="M2.98171 12.742L1.57746 12.9148L1.19427 9.31902L2.59852 9.1462L2.24333 5.95707L7.07648 5.36881L7.43167 8.55794L10.5341 8.17759L10.9172 11.7734L7.81486 12.1537L8.28737 16.4998C8.3767 17.2501 8.69895 17.5908 9.61361 17.4549C10.1688 17.3859 10.8239 17.1278 11.1845 16.9671L12.1494 21.0258C11.0682 21.4766 10.4453 21.7656 8.81235 21.9723C5.44868 22.387 3.84026 20.4334 3.57511 17.932L2.98171 12.742Z" fill="#172153"/>
<path d="M12.2856 14.659C11.8172 10.3345 14.2164 7.47126 18.6305 6.92037C22.9795 6.40141 25.9684 8.57761 26.4364 12.9332C26.9052 17.2265 24.4733 20.1213 20.1239 20.6714C15.7102 21.1911 12.7544 18.9522 12.2856 14.659ZM17.0891 14.0723C17.2933 16.0324 17.9952 16.9897 19.7153 16.7824C21.4354 16.575 21.9019 15.4792 21.6981 13.4879C21.4943 11.4967 20.7604 10.5086 19.0402 10.7159C17.3201 10.9233 16.8529 12.0814 17.0891 14.0723Z" fill="#172153"/>
<path d="M37.0492 8.37972L37.3097 8.34541C37.8247 5.96555 39.1091 4.51361 41.0297 4.27226C43.7315 3.92797 45.4935 6.15596 45.9942 10.6477C46.4946 15.1707 45.1325 17.7167 42.4632 18.0606C40.4452 18.3031 38.9642 17.0713 37.9824 14.8341L37.7545 14.868L38.106 18.2058L33.2886 18.7938L31.3767 1.38798L36.1941 0.800035L37.0492 8.37972ZM41.3722 11.2021C41.1663 9.33051 40.4605 8.52678 39.0608 8.6995C37.8891 8.83829 37.2277 9.81436 37.3737 11.2494L37.4918 12.2787C37.6385 13.6513 38.5072 14.4218 39.6464 14.2834C41.1111 14.1099 41.5782 13.0737 41.3722 11.2021Z" fill="#172153"/>
<path d="M46.3621 11.0937C45.8637 6.51657 48.0392 3.52888 52.6192 2.97561C56.8745 2.45738 59.0556 4.58267 59.4364 8.10116C59.4941 8.72401 59.5532 9.22214 59.5452 9.90813L51.0996 10.9438C51.4683 12.7165 52.2407 13.2374 53.6375 13.0649C55.0343 12.8924 55.3663 12.2337 55.5372 11.4835L59.6504 12.0269C59.3007 14.2135 58.0123 16.2241 53.9842 16.7397C49.9888 17.2236 46.8298 15.5153 46.3621 11.0937ZM50.9252 9.19999L55.0831 8.68291C54.9415 6.9075 54.1713 6.19958 52.8718 6.37091C51.4426 6.54379 50.8503 7.2679 50.9252 9.19999Z" fill="#172153"/>
</svg>
