<svg width="60" height="23" viewBox="0 0 60 23" fill="none" xmlns="http://www.w3.org/2000/svg">
<path d="M2.48171 12.742L1.07746 12.9148L0.694273 9.31902L2.09852 9.1462L1.74333 5.95707L6.57648 5.36881L6.93167 8.55794L10.0341 8.17759L10.4172 11.7734L7.31486 12.1537L7.78737 16.4998C7.8767 17.2501 8.19895 17.5908 9.11361 17.4549C9.66879 17.3859 10.3239 17.1278 10.6845 16.9671L11.6494 21.0258C10.5682 21.4766 9.94526 21.7656 8.31235 21.9723C4.94868 22.387 3.34026 20.4334 3.07511 17.932L2.48171 12.742Z" fill="#172153"/>
<path d="M11.7856 14.659C11.3172 10.3345 13.7164 7.47126 18.1305 6.92037C22.4795 6.40141 25.4684 8.57761 25.9364 12.9332C26.4052 17.2265 23.9733 20.1213 19.6239 20.6714C15.2102 21.1911 12.2544 18.9522 11.7856 14.659ZM16.5891 14.0723C16.7933 16.0324 17.4952 16.9897 19.2153 16.7824C20.9354 16.575 21.4019 15.4792 21.1981 13.4879C20.9943 11.4967 20.2604 10.5086 18.5402 10.7159C16.8201 10.9233 16.3529 12.0814 16.5891 14.0723Z" fill="#172153"/>
<path d="M36.5492 8.37972L36.8097 8.34541C37.3247 5.96555 38.6091 4.51361 40.5297 4.27226C43.2315 3.92797 44.9935 6.15596 45.4942 10.6477C45.9946 15.1707 44.6325 17.7167 41.9632 18.0606C39.9452 18.3031 38.4642 17.0713 37.4824 14.8341L37.2545 14.868L37.606 18.2058L32.7886 18.7938L30.8767 1.38798L35.6941 0.800035L36.5492 8.37972ZM40.8722 11.2021C40.6663 9.33051 39.9605 8.52678 38.5608 8.6995C37.3891 8.83829 36.7277 9.81436 36.8737 11.2494L36.9918 12.2787C37.1385 13.6513 38.0072 14.4218 39.1464 14.2834C40.6111 14.1099 41.0782 13.0737 40.8722 11.2021Z" fill="#172153"/>
<path d="M45.8621 11.0937C45.3637 6.51657 47.5392 3.52888 52.1192 2.97561C56.3745 2.45738 58.5556 4.58267 58.9364 8.10116C58.9941 8.72401 59.0532 9.22214 59.0452 9.90813L50.5996 10.9438C50.9683 12.7165 51.7407 13.2374 53.1375 13.0649C54.5343 12.8924 54.8663 12.2337 55.0372 11.4835L59.1504 12.0269C58.8007 14.2135 57.5123 16.2241 53.4842 16.7397C49.4888 17.2236 46.3298 15.5153 45.8621 11.0937ZM50.4252 9.19999L54.5831 8.68291C54.4415 6.9075 53.6713 6.19958 52.3718 6.37091C50.9426 6.54379 50.3503 7.2679 50.4252 9.19999Z" fill="#172153"/>
</svg>
