<svg width="27" height="11" viewBox="0 0 27 11" fill="none" xmlns="http://www.w3.org/2000/svg">
<path d="M1.39073 5.84974L0.771313 5.9268L0.601994 4.32607L1.22141 4.24901L1.06448 2.82931L3.19639 2.567L3.35333 3.9867L4.7218 3.8171L4.89112 5.41784L3.52265 5.58744L3.73143 7.52219C3.7709 7.85621 3.91307 8.00782 4.31653 7.94727C4.56142 7.91648 4.85039 7.80154 5.00942 7.72997L5.4354 9.5367C4.95847 9.7375 4.68373 9.8662 3.96344 9.9584C2.47972 10.1433 1.77007 9.27372 1.6529 8.16016L1.39073 5.84974Z" fill="white"/>
<path d="M5.49613 6.70361C5.28918 4.77864 6.34714 3.50385 8.29405 3.25823C10.2122 3.02684 11.5307 3.99531 11.7375 5.93415C11.9446 7.84525 10.8722 9.13409 8.95386 9.37935C7.00711 9.6111 5.70323 8.61471 5.49613 6.70361ZM7.61476 6.44203C7.70496 7.31455 8.01463 7.74065 8.77331 7.64819C9.532 7.55574 9.73765 7.06789 9.64761 6.18151C9.55757 5.29512 9.23376 4.85533 8.47507 4.94779C7.71639 5.04024 7.51042 5.55583 7.61476 6.44203Z" fill="white"/>
<path d="M16.418 3.90747L16.5328 3.89217C16.7598 2.83269 17.3263 2.18623 18.1734 2.07862C19.3651 1.92512 20.1425 2.91679 20.3637 4.91631C20.5848 6.92973 19.9842 8.06326 18.8068 8.21659C17.9167 8.32472 17.2633 7.77648 16.8301 6.78063L16.7296 6.79576L16.8849 8.28162L14.76 8.54378L13.9153 0.795485L16.0402 0.53333L16.418 3.90747ZM18.325 5.16351C18.2341 4.33036 17.9227 3.97263 17.3053 4.04965C16.7885 4.11153 16.4968 4.5461 16.5613 5.18491L16.6135 5.64312C16.6783 6.25412 17.0616 6.59707 17.5641 6.53536C18.2101 6.458 18.416 5.99666 18.325 5.16351Z" fill="white"/>
<path d="M20.524 5.1161C20.3038 3.07862 21.2632 1.74845 23.2833 1.50176C25.1601 1.27069 26.1223 2.21658 26.2906 3.78282C26.3161 4.06008 26.3422 4.28182 26.3387 4.58719L22.6136 5.04898C22.7764 5.83807 23.1171 6.06985 23.7332 5.99295C24.3493 5.91604 24.4957 5.62281 24.571 5.2888L26.3853 5.53037C26.2312 6.50375 25.6631 7.39891 23.8864 7.62876C22.1242 7.84455 20.7307 7.08434 20.524 5.1161ZM22.5366 4.27271L24.3705 4.04217C24.3079 3.25185 23.9681 2.93679 23.3949 3.01317C22.7645 3.09025 22.5034 3.41264 22.5366 4.27271Z" fill="white"/>
</svg>
