<svg width="100" height="98" viewBox="0 0 100 98" fill="none" xmlns="http://www.w3.org/2000/svg">
<path d="M76.0977 52.8212L62.5977 46.2083C67.9727 42.1263 71.431 35.7584 71.431 28.5741C71.431 16.2056 61.1393 6.12305 48.5143 6.12305C35.8893 6.12305 25.5977 16.2056 25.5977 28.5741C25.5977 37.2687 30.681 44.8205 38.0977 48.5351V61.8424C29.1393 59.9647 29.681 60.0463 28.681 60.0463C26.4727 60.0463 24.3893 60.9036 22.806 62.4547L16.9727 68.2512L38.181 89.0286C39.9727 90.8246 42.4727 91.8452 45.056 91.8452H71.306C75.3893 91.8452 78.8477 88.9877 79.5143 85.0282L82.8477 65.802C83.7643 60.4954 81.056 55.2704 76.0977 52.8212ZM74.6393 64.4549L71.306 83.6811H45.056C44.681 83.6811 44.3477 83.5179 44.056 83.2729L28.7227 68.2512L46.431 71.8842V28.5741C46.431 27.4311 47.3477 26.5331 48.5143 26.5331C49.681 26.5331 50.5977 27.4311 50.5977 28.5741V53.0661H57.931L72.3477 60.128C74.0143 60.9444 74.931 62.6996 74.6393 64.4549ZM33.931 28.5741C33.931 20.6958 40.4727 14.2871 48.5143 14.2871C56.556 14.2871 63.0977 20.6958 63.0977 28.5741C63.0977 32.452 61.5143 35.9625 58.931 38.5342V28.5741C58.931 22.9409 54.2643 18.3691 48.5143 18.3691C42.7643 18.3691 38.0977 22.9409 38.0977 28.5741V38.5342C35.5143 35.9625 33.931 32.452 33.931 28.5741Z" fill="#172153"/>
</svg>
