<svg width="226" height="309" viewBox="0 0 226 309" fill="none" xmlns="http://www.w3.org/2000/svg">
<path opacity="0.5" fill-rule="evenodd" clip-rule="evenodd" d="M143.328 137.528C161.701 124.6 174 100.987 174 74C174 33.1309 145.794 0 111 0C76.2061 0 48 33.1309 48 74C48 101.758 61.012 125.947 80.2623 138.61C33.8178 160.281 0 223.346 0 263.519C0 309.374 44.0628 309.197 100.671 308.969C104.721 308.952 108.834 308.936 113 308.936C117.166 308.936 121.279 308.952 125.328 308.969C181.937 309.197 226 309.374 226 263.519C226 222.654 191.008 158.103 143.328 137.528Z" fill="#939496"/>
</svg>
