<svg width="247" height="342" viewBox="0 0 247 342" fill="none" xmlns="http://www.w3.org/2000/svg">
<path opacity="0.5" fill-rule="evenodd" clip-rule="evenodd" d="M160.772 147.163C178.546 132.539 190.168 108.302 190.168 80.8761C190.168 36.2095 159.341 0 121.314 0C83.2872 0 52.4602 36.2095 52.4602 80.8761C52.4602 108.802 64.5102 133.423 82.8361 147.955C34.6066 159.771 0 192.493 0 234.978C0 346.969 38.0647 343.796 89.9879 339.467C100.645 338.579 111.885 337.642 123.5 337.642C131.946 337.642 140.194 337.937 148.164 338.221C204.553 340.233 247 341.748 247 234.978C247 191.504 210.763 158.252 160.772 147.163Z" fill="#939496"/>
</svg>
