<svg width="128" height="128" viewBox="0 0 128 128" fill="none" xmlns="http://www.w3.org/2000/svg">
<path d="M0.92777 21.6389C0.415287 14.3102 5.93883 7.95606 13.2676 7.44359L106.44 0.928392C113.769 0.415919 120.123 5.93947 120.635 13.2682L127.151 106.441C127.397 109.959 126.235 113.432 123.921 116.094C121.607 118.756 118.33 120.39 114.811 120.636L21.6385 127.151C18.1197 127.397 14.6473 126.235 11.9851 123.921C9.32296 121.607 7.68914 118.33 7.44308 114.811L0.92777 21.6389ZM29.3012 106.567L105.715 101.223C100.998 95.3607 94.933 90.727 88.0367 87.7179C81.1404 84.7088 73.6182 83.4139 66.1128 83.9437C58.6066 84.4636 51.3378 86.7928 44.9274 90.7324C38.5171 94.6719 33.1556 100.105 29.3012 106.567V106.567ZM64.5043 70.6902C67.561 70.4765 70.5457 69.6628 73.2879 68.2956C76.0302 66.9283 78.4763 65.0344 80.4865 62.7218C82.4968 60.4092 84.0319 57.7234 85.0042 54.8175C85.9765 51.9117 86.3669 48.8428 86.1531 45.7861C85.9394 42.7294 85.1257 39.7447 83.7585 37.0025C82.3912 34.2603 80.4972 31.8142 78.1847 29.8039C75.8721 27.7936 73.1862 26.2585 70.2804 25.2862C67.3746 24.3139 64.3057 23.9235 61.249 24.1373C55.0757 24.5689 49.3267 27.4353 45.2668 32.1057C41.2068 36.7761 39.1685 42.8681 39.6002 49.0414C40.0318 55.2147 42.8982 60.9637 47.5686 65.0236C52.2391 69.0836 58.331 71.1219 64.5043 70.6902V70.6902Z" fill="#FFE141"/>
</svg>
