<svg width="115" height="113" viewBox="0 0 115 113" fill="none" xmlns="http://www.w3.org/2000/svg">
<path d="M4.26533 12.1561C4.54384 5.4274 10.2244 0.135563 16.9559 0.333886L102.535 2.85521C109.267 3.05353 114.496 8.66679 114.218 15.3955L110.677 100.939C110.543 104.169 109.131 107.23 106.751 109.447C104.371 111.664 101.218 112.856 97.9862 112.761L12.4067 110.24C9.17471 110.144 6.12818 108.77 3.93735 106.418C1.74651 104.066 0.590842 100.93 0.724564 97.6994L4.26533 12.1561ZM21.4846 92.1671L91.6708 94.235C87.9689 88.4613 82.9124 83.6856 76.9333 80.3157C70.9542 76.9458 64.2303 75.082 57.3359 74.8834C50.442 74.6758 43.5803 76.1393 37.3372 79.1491C31.094 82.1589 25.655 86.6255 21.4846 92.1671V92.1671ZM57.2183 62.6533C60.0259 62.736 62.8289 62.2652 65.4673 61.2676C68.1056 60.2701 70.5276 58.7654 72.5951 56.8394C74.6625 54.9135 76.3348 52.604 77.5166 50.0428C78.6983 47.4817 79.3663 44.719 79.4825 41.9126C79.5986 39.1062 79.1607 36.311 78.1936 33.6865C77.2265 31.0621 75.7492 28.6598 73.846 26.6169C71.9429 24.5739 69.6512 22.9304 67.1017 21.78C64.5523 20.6296 61.7951 19.9949 58.9874 19.9122C53.3172 19.7451 47.786 21.8364 43.6107 25.7261C39.4354 29.6157 36.9579 34.985 36.7233 40.6529C36.4887 46.3207 38.5162 51.8227 42.3598 55.9486C46.2033 60.0745 51.5481 62.4863 57.2183 62.6533V62.6533Z" fill="#898DE4"/>
</svg>
