<svg width="106" height="107" viewBox="0 0 106 107" fill="none" xmlns="http://www.w3.org/2000/svg">
<path d="M0.392522 18.173C-0.029285 12.0653 4.57763 6.76558 10.6846 6.3332L88.3235 0.836147C94.4305 0.40376 99.721 5.0027 100.143 11.1104L105.505 88.7587C105.708 91.6912 104.737 94.5861 102.807 96.8065C100.877 99.0269 98.1454 100.391 95.2133 100.599L17.5743 106.096C14.6422 106.303 11.7497 105.337 9.53314 103.411C7.31659 101.484 5.95758 98.7538 5.75505 95.8213L0.392522 18.173ZM23.9738 88.9341L87.6477 84.4258C83.7221 79.5431 78.6716 75.6856 72.9275 73.1827C67.1835 70.6798 60.9167 69.6059 54.6625 70.0529C48.4077 70.4916 42.3495 72.4381 37.0054 75.7261C31.6612 79.014 27.1901 83.5458 23.9738 88.9341ZM53.3317 59.0082C55.8788 58.8279 58.3663 58.1475 60.6522 57.0061C62.9381 55.8646 64.9776 54.2844 66.6543 52.3555C68.3309 50.4267 69.612 48.1871 70.4242 45.7646C71.2364 43.3421 71.5638 40.7841 71.3879 38.2367C71.212 35.6893 70.5361 33.2023 69.3988 30.9178C68.2615 28.6334 66.6852 26.5961 64.7597 24.9223C62.8342 23.2485 60.5973 21.971 58.1768 21.1628C55.7563 20.3546 53.1994 20.0314 50.6523 20.2117C45.5082 20.576 40.716 22.969 37.3298 26.8644C33.9436 30.7598 32.2408 35.8385 32.5961 40.9833C32.9514 46.128 35.3357 50.9173 39.2244 54.2977C43.113 57.678 48.1876 59.3724 53.3317 59.0082Z" fill="#8ADFE5"/>
</svg>
