<svg width="128" height="128" viewBox="0 0 128 128" fill="none" xmlns="http://www.w3.org/2000/svg">
<path d="M0.92776 21.638C0.415283 14.3092 5.93883 7.95508 13.2676 7.4426L106.44 0.927341C113.769 0.414863 120.123 5.93841 120.635 13.2672L127.151 106.44C127.397 109.958 126.235 113.431 123.921 116.093C121.607 118.755 118.33 120.389 114.811 120.635L21.6384 127.15C18.1196 127.396 14.6472 126.234 11.985 123.92C9.32288 121.606 7.68907 118.329 7.44301 114.81L0.92776 21.638ZM29.3011 106.566L105.715 101.222C100.998 95.3597 94.9329 90.7259 88.0366 87.7169C81.1404 84.7078 73.6182 83.4128 66.1127 83.9427C58.6065 84.4626 51.3378 86.7918 44.9274 90.7314C38.517 94.6709 33.1556 100.104 29.3011 106.566ZM64.5043 70.6892C67.561 70.4755 70.5457 69.6618 73.2879 68.2946C76.0301 66.9273 78.4762 65.0334 80.4865 62.7208C82.4968 60.4082 84.0319 57.7223 85.0042 54.8165C85.9765 51.9107 86.3669 48.8418 86.1531 45.7851C85.9394 42.7284 85.1257 39.7437 83.7584 37.0015C82.3912 34.2592 80.4972 31.8131 78.1847 29.8029C75.8721 27.7926 73.1862 26.2575 70.2804 25.2852C67.3746 24.3129 64.3057 23.9225 61.249 24.1363C55.0757 24.5679 49.3267 27.4343 45.2667 32.1047C41.2068 36.7751 39.1684 42.8671 39.6001 49.0404C40.0318 55.2137 42.8981 60.9627 47.5686 65.0226C52.239 69.0826 58.331 71.1209 64.5043 70.6892Z" fill="#8ADFE5"/>
</svg>
