<svg width="17" height="12" viewBox="0 0 17 12" fill="none" xmlns="http://www.w3.org/2000/svg">
<path fill-rule="evenodd" clip-rule="evenodd" d="M8.37879 3.25242C10.5947 3.25252 12.7258 4.10396 14.3318 5.63076C14.4527 5.74863 14.646 5.74715 14.7651 5.62742L15.9211 4.46076C15.9814 4.40004 16.0151 4.31778 16.0146 4.2322C16.0141 4.14662 15.9795 4.06477 15.9185 4.00476C11.7034 -0.0347892 5.05356 -0.0347892 0.838458 4.00476C0.7774 4.06473 0.742755 4.14655 0.742195 4.23213C0.74163 4.31772 0.775195 4.39999 0.83546 4.46076L1.99179 5.62742C2.11082 5.74733 2.30427 5.74881 2.42512 5.63076C4.03128 4.10386 6.16268 3.25242 8.37879 3.25242ZM8.37878 7.04809C9.59627 7.04802 10.7703 7.50055 11.6728 8.31776C11.7948 8.43374 11.9871 8.43122 12.1061 8.31209L13.2608 7.14542C13.3216 7.08423 13.3553 7.00121 13.3545 6.91495C13.3536 6.82868 13.3182 6.74637 13.2561 6.68643C10.5079 4.13004 6.25198 4.13004 3.50378 6.68643C3.4417 6.74637 3.40629 6.82872 3.40547 6.91502C3.40465 7.00131 3.43851 7.08432 3.49945 7.14542L4.65378 8.31209C4.77277 8.43122 4.96505 8.43374 5.08711 8.31776C5.98898 7.50109 7.16209 7.0486 8.37878 7.04809ZM10.6918 9.60191C10.6935 9.68842 10.6595 9.77182 10.5978 9.83242L8.60045 11.8481C8.5419 11.9073 8.46207 11.9407 8.37878 11.9407C8.29549 11.9407 8.21567 11.9073 8.15712 11.8481L6.15945 9.83242C6.09774 9.77177 6.06379 9.68834 6.06562 9.60184C6.06745 9.51533 6.1049 9.43341 6.16912 9.37542C7.44469 8.29654 9.31288 8.29654 10.5885 9.37542C10.6526 9.43346 10.69 9.5154 10.6918 9.60191Z" fill="white"/>
</svg>
