<svg width="74" height="34" viewBox="0 0 74 34" fill="none" xmlns="http://www.w3.org/2000/svg">
<path fill-rule="evenodd" clip-rule="evenodd" d="M36.3635 0.618904C28.4062 0.618904 23.6049 5.4167 23.6049 13.6052C23.6049 19.1246 25.8229 23.1403 29.7424 25.1467C30.6322 23.3455 33.1401 22.0477 36.095 22.0477C39.1469 22.0477 41.7221 23.4322 42.53 25.3257C46.6348 23.3881 49.0214 19.3028 49.0214 13.6052C49.0214 5.4167 44.153 0.618904 36.3635 0.618904ZM36.2964 19.2845C33.2578 19.2845 32.2002 17.3349 32.2002 13.6052C32.2002 9.87543 33.2746 7.82408 36.2964 7.82408C39.3853 7.82408 40.4429 9.87543 40.4429 13.6052C40.4429 17.3519 39.3853 19.2845 36.2964 19.2845ZM65.4398 19.1654H64.8858C63.4756 24.1667 60.6889 26.574 57.1299 26.574C52.9833 26.574 50.7002 23.5055 50.7002 18.1821V1.38135H59.3123V15.6391C59.3123 17.5888 60.2692 18.7585 61.9479 18.7585C64.0296 18.7585 65.188 17.0802 65.188 14.7236V1.38135H73.8V25.8281H65.4398V19.1654ZM1.35979 26.6421L0.251806 33.6439L0.31084 33.6526C1.65745 33.8517 2.66022 33.9999 4.34799 33.9999C11.0295 33.9999 14.2695 31.4908 16.4519 25.6588L25.5172 1.38163H16.2504L14.5213 10.689C14.4053 11.304 14.2893 11.9246 14.1721 12.5517C13.8822 14.1026 13.585 15.6929 13.2622 17.3347H12.7082C12.3053 15.046 11.8521 12.7404 11.3484 10.5364L9.3675 1.38163H-9.03885e-06L8.24273 25.4554C7.53765 26.693 6.53039 26.9982 4.49908 26.9982C3.49182 26.9982 2.36705 26.8456 1.35979 26.6421Z" fill="white"/>
</svg>
