<svg width="62" height="28" viewBox="0 0 62 28" fill="none" xmlns="http://www.w3.org/2000/svg">
<path fill-rule="evenodd" clip-rule="evenodd" d="M30.4208 0.182625C23.7639 0.182625 19.7472 4.18079 19.7472 11.0045C19.7472 15.604 21.6028 18.9505 24.8817 20.6224C25.6261 19.1215 27.7242 18.04 30.1961 18.04C32.7493 18.04 34.9036 19.1937 35.5795 20.7717C39.0135 19.157 41.01 15.7525 41.01 11.0045C41.01 4.18079 36.9373 0.182625 30.4208 0.182625ZM30.3646 15.7373C27.8226 15.7373 26.9378 14.1126 26.9378 11.0045C26.9378 7.8964 27.8367 6.18694 30.3646 6.18694C32.9487 6.18694 33.8335 7.8964 33.8335 11.0045C33.8335 14.1268 32.9487 15.7373 30.3646 15.7373ZM54.7452 15.6381H54.2817C53.102 19.8058 50.7707 21.8119 47.7933 21.8119C44.3244 21.8119 42.4144 19.2548 42.4144 14.8186V0.817996H49.6191V12.6995C49.6191 14.3242 50.4196 15.299 51.824 15.299C53.5655 15.299 54.5345 13.9003 54.5345 11.9366V0.817996H61.7392V21.1903H54.7452V15.6381ZM1.13757 21.8687L0.210654 27.7034L0.260041 27.7107C1.38658 27.8766 2.22547 28.0001 3.63742 28.0001C9.22697 28.0001 11.9375 25.9092 13.7632 21.0492L21.347 0.818228H13.5947L12.1481 8.57439C12.0511 9.08691 11.9541 9.60412 11.856 10.1267C11.6135 11.4191 11.3649 12.7443 11.0948 14.1125H10.6314C10.2943 12.2052 9.91513 10.2839 9.49381 8.44724L7.8366 0.818228H-7.46371e-06L6.89565 20.8797C6.3058 21.911 5.46315 22.1653 3.76381 22.1653C2.92117 22.1653 1.98021 22.0382 1.13757 21.8687Z" fill="white"/>
</svg>
