<svg width="141" height="63" viewBox="0 0 141 63" fill="none" xmlns="http://www.w3.org/2000/svg">
<path fill-rule="evenodd" clip-rule="evenodd" d="M69.4823 0.361832C54.3871 0.361832 45.279 9.34167 45.279 24.6677C45.279 34.9982 49.4866 42.5142 56.9218 46.2694C58.6098 42.8983 63.3675 40.4693 68.9729 40.4693C74.7624 40.4693 79.6476 43.0605 81.1802 46.6046C88.9671 42.978 93.4946 35.3317 93.4946 24.6677C93.4946 9.34167 84.2591 0.361832 69.4823 0.361832ZM69.3549 35.2975C63.5907 35.2975 61.5844 31.6485 61.5844 24.6677C61.5844 17.6869 63.6226 13.8474 69.3549 13.8474C75.2147 13.8474 77.221 17.6869 77.221 24.6677C77.221 31.6802 75.2147 35.2975 69.3549 35.2975ZM124.64 35.0746H123.59C120.914 44.4352 115.628 48.941 108.876 48.941C101.01 48.941 96.6792 43.1977 96.6792 33.2342V1.78887H113.016V28.4745C113.016 32.1236 114.832 34.313 118.016 34.313C121.965 34.313 124.163 31.1717 124.163 26.7611V1.78887H140.5V47.5448H124.64V35.0746ZM3.07955 49.0684L0.97768 62.1733L1.08972 62.1896C3.64423 62.5622 5.54652 62.8396 8.74823 62.8396C21.4231 62.8396 27.5695 58.1434 31.7096 47.228L48.9067 1.78939H31.3274L28.0472 19.2096C27.8272 20.3606 27.6071 21.5222 27.3848 22.6957C26.8349 25.5986 26.271 28.5751 25.6587 31.6481H24.6078C23.8435 27.3645 22.9836 23.0491 22.0282 18.9241L18.2703 1.78939H0.499982L16.1366 46.8472C14.7991 49.1636 12.8883 49.7348 9.03484 49.7348C7.12405 49.7348 4.99034 49.4492 3.07955 49.0684Z" fill="#6C70DD"/>
</svg>
