<svg width="62" height="28" viewBox="0 0 62 28" fill="none" xmlns="http://www.w3.org/2000/svg">
<path fill-rule="evenodd" clip-rule="evenodd" d="M30.4208 0.182617C23.7639 0.182617 19.7473 4.18078 19.7473 11.0045C19.7473 15.604 21.6028 18.9505 24.8817 20.6224C25.6261 19.1215 27.7242 18.04 30.1961 18.04C32.7493 18.04 34.9036 19.1937 35.5795 20.7716C39.0135 19.1569 41.0101 15.7525 41.0101 11.0045C41.0101 4.18078 36.9373 0.182617 30.4208 0.182617ZM30.3646 15.7373C27.8226 15.7373 26.9378 14.1126 26.9378 11.0045C26.9378 7.89639 27.8367 6.18693 30.3646 6.18693C32.9487 6.18693 33.8335 7.89639 33.8335 11.0045C33.8335 14.1267 32.9487 15.7373 30.3646 15.7373ZM54.7452 15.6381H54.2817C53.102 19.8057 50.7707 21.8119 47.7933 21.8119C44.3244 21.8119 42.4144 19.2548 42.4144 14.8186V0.817988H49.6191V12.6995C49.6191 14.3242 50.4196 15.299 51.824 15.299C53.5655 15.299 54.5345 13.9003 54.5345 11.9366V0.817988H61.7392V21.1903H54.7452V15.6381ZM1.13757 21.8686L0.210662 27.7034L0.260048 27.7107C1.38658 27.8766 2.22548 28.0001 3.63742 28.0001C9.22698 28.0001 11.9375 25.9092 13.7632 21.0492L21.347 0.81822H13.5947L12.1482 8.57438C12.0511 9.08685 11.9541 9.604 11.856 10.1265C11.6135 11.419 11.3649 12.7442 11.0948 14.1125H10.6314C10.2943 12.2052 9.91514 10.2838 9.49382 8.44723L7.83661 0.81822H0L6.89566 20.8797C6.3058 21.911 5.46316 22.1653 3.76382 22.1653C2.92117 22.1653 1.98022 22.0382 1.13757 21.8686Z" fill="white"/>
</svg>
